HIERARCHY
ROOT pelvis
{
  OFFSET 0 100 0
  CHANNELS 6 Xposition Yposition Zposition Zrotation Xrotation Yrotation
  JOINT pelvis_right_femur
  {
    OFFSET -10.78128 -3.44521 -0.5502486
    CHANNELS 3 Zrotation Xrotation Yrotation
    JOINT right_femur_tibia
    {
      OFFSET -0.8047443 -44.0398 -0.1307829
      CHANNELS 3 Zrotation Xrotation Yrotation
      JOINT right_tibia_foot
      {
        OFFSET 3.006224 -47.83518 -5
        CHANNELS 3 Zrotation Xrotation Yrotation
        End Site
        {
          OFFSET 0 -5 15
        }
      }
    }
  }
  JOINT pelvis_left_femur
  {
    OFFSET 10.78128 -3.44521 -0.5502486
    CHANNELS 3 Zrotation Xrotation Yrotation
    JOINT left_femur_tibia
    {
      OFFSET 0.8047443 -44.0398 -0.1307829
      CHANNELS 3 Zrotation Xrotation Yrotation
      JOINT left_tibia_foot
      {
        OFFSET -4.370144 -48.10324 -4.275266
        CHANNELS 3 Zrotation Xrotation Yrotation
        End Site
        {
          OFFSET 0 -5 15
        }
      }
    }
  }
  JOINT pelvis_spine1
  {
    OFFSET 0 6.468898 -3.129235
    CHANNELS 3 Zrotation Xrotation Yrotation
    JOINT spine1
    {
      OFFSET 0 23.15396 4.99043
      CHANNELS 3 Zrotation Xrotation Yrotation
      JOINT spine2
      {
        OFFSET 0 20.79997 -5.064912
        CHANNELS 3 Zrotation Xrotation Yrotation
        JOINT neck
        {
          OFFSET 0 14.38658 9.616178
          CHANNELS 3 Zrotation Xrotation Yrotation
          End Site
          {
            OFFSET 0 20 0
          }
        }
      }
      JOINT right_manubrium
      {
        OFFSET -5.722621 16.35077 3.967754
        CHANNELS 3 Zrotation Xrotation Yrotation
        JOINT right_clavicle
        {
          OFFSET -13.16364 1.694482 -4.693211
          CHANNELS 3 Zrotation Xrotation Yrotation
          JOINT right_humerus
          {
            OFFSET -28.5034 -0.3100689 -2.792744
            CHANNELS 3 Zrotation Xrotation Yrotation
            JOINT right_radius
            {
              OFFSET -25.15693 0.02248979 -1.271978
              CHANNELS 3 Zrotation Xrotation Yrotation
              End Site
              {
                OFFSET -15 0 0
              }
            }
          }
        }
      }
      JOINT left_manubrium
      {
        OFFSET 5.722621 16.35077 3.967754
        CHANNELS 3 Zrotation Xrotation Yrotation
        JOINT left_clavicle
        {
          OFFSET 13.16364 1.694482 -4.693211
          CHANNELS 3 Zrotation Xrotation Yrotation
          JOINT left_humerus
          {
            OFFSET 29.39168 -1.063119 -2.237045
            CHANNELS 3 Zrotation Xrotation Yrotation
            JOINT left_radius
            {
              OFFSET 24.59957 -0.9528479 0.9047498
              CHANNELS 3 Zrotation Xrotation Yrotation
              End Site
              {
                OFFSET 15 -0 -0
              }
            }
          }
        }
      }
    }
  }
}
MOTION
Frames: 7
Frame Time: 0.0416666666667
0 103.5113 0 2.515693 -1.94437 0.1210296 1.059227 -11.52807 8.305996 -0 37.19435 -0 -4.119604 -18.75792 -3.376446 -8.123002 10.84747 -24.05499 -0 3.875548 -0 8.972936 -14.99125 26.49988 -2.110957 -3.321766 5.840142 2.632621 9.611973 -7.297128 1.624038 21.51919 6.301015 2.3447 -26.69322 10.3098 5.659642 -19.91022 10.61656 85.3802 35.72841 -18.82936 -0 0 15.95242 -5.407189 7.920172 2.99346 5.901941 -20.82381 -0.5575542 -96.28805 25.58671 25.74958 0 0 -13.61272 11.30167 16.91671 2.40648
0.28287 103.4728 1.298456 1.911382 -0.891704 0.06652235 2.192106 -13.96072 9.391875 -0 37.55121 -0 -3.675228 -18.03067 -3.536867 -7.778194 10.83791 -23.91024 -0 4.442896 -0 8.356521 -15.90407 26.78635 -2.144942 -3.402633 5.947667 2.547943 9.589853 -7.192153 1.646618 21.64839 6.220316 2.272662 -26.62971 10.32057 5.638522 -20.01438 10.53679 85.22226 35.75821 -18.56821 -0 0 16.17762 -5.376696 7.777933 2.962058 5.83044 -20.77003 -0.5362877 -96.63445 25.76935 26.20123 0 0 -13.09497 11.22554 17.16478 2.550467
0.5310495 103.2934 2.934648 1.159586 -0.6972716 0.06033374 2.985455 -17.07337 7.68548 -0 34.87941 -0 -5.176734 -15.28444 -3.021935 -7.112766 11.39651 -22.79266 -0 4.869753 -0 6.155238 -18.05982 25.3639 -1.966586 -2.928675 5.498505 2.821429 9.702961 -7.55448 1.54794 21.17284 6.48547 2.602234 -26.53483 10.06493 5.678011 -19.40073 10.84604 85.82766 35.61073 -19.44125 -0 0 15.003 -5.931182 8.566179 3.34079 6.102573 -20.97913 -0.6607948 -94.95655 24.93053 23.95518 0 0 -15.24058 11.25409 15.97717 2.183857
0.7583838 103.0821 4.811986 0.4185646 0.07005896 0.05864721 4.105724 -20.53598 7.535252 -0 33.05359 -0 -5.674052 -13.31707 -2.961887 -6.582248 11.65993 -21.97468 -0 5.334397 -0 4.760119 -19.82007 24.55359 -1.884513 -2.678289 5.206357 3.035685 9.751409 -7.809888 1.474432 20.87419 6.679733 2.767714 -26.62181 9.99646 5.679739 -19.08318 11.03668 86.29565 35.58195 -20.10188 -0 0 14.26854 -6.08725 8.934733 3.52728 6.240128 -21.11894 -0.771091 -93.92772 24.42713 22.63302 0 0 -16.78323 11.43334 15.17574 1.83573
0.9740849 102.76 6.990473 -0.0603343 0.883719 0.1180323 4.97881 -23.84703 7.301137 -0 30.30755 -0 -5.932209 -11.42589 -2.840186 -6.288707 11.98251 -21.04151 -0 5.640479 -0 4.283562 -21.1621 23.81121 -1.808721 -2.406036 4.879618 3.279089 9.797947 -8.089231 1.380553 20.56325 6.898996 2.929708 -26.73187 9.933495 5.652145 -18.74446 11.24133 86.87011 35.60222 -20.85941 -0 0 13.40018 -6.244111 9.28884 3.774322 6.357436 -21.2772 -0.9323673 -92.75563 23.86186 21.16214 0 0 -18.61524 11.67103 14.19831 1.435452
1.180741 102.327 9.519086 -0.4282224 1.887379 0.2654637 5.858246 -27.23975 7.262521 -0 27.07596 -0 -5.937747 -9.584085 -2.696149 -6.133692 12.37488 -20.11439 -0 6.056284 -0 4.385944 -22.23493 23.21572 -1.753615 -2.17929 4.570109 3.512341 9.825697 -8.353721 1.285694 20.28164 7.113815 3.065987 -26.86785 9.902373 5.609025 -18.45347 11.42483 87.44702 35.6551 -21.59895 -0 0 12.58673 -6.366719 9.564997 4.020207 6.458828 -21.4363 -1.091404 -91.67893 23.32358 19.82516 0 0 -20.37066 11.9319 13.26334 1.040781
1.380647 101.7795 12.46854 -0.7449161 2.891652 0.5307199 6.679439 -30.50669 7.128973 -0 23.55928 -0 -5.991201 -7.613802 -2.418312 -6.037053 12.88498 -19.16899 -0 6.789388 -0 4.666508 -23.01567 22.52349 -1.714032 -1.975011 4.285857 3.716538 9.852822 -8.585817 1.189363 20.04637 7.310652 3.182767 -26.97123 9.867762 5.549347 -18.18984 11.58783 88.01717 35.73767 -22.28411 -0 0 11.79718 -6.524852 9.786059 4.300607 6.529122 -21.58942 -1.269572 -90.67557 22.81539 18.59368 0 0 -22.01807 12.16541 12.34756 0.7004311
